<svg id="visual" viewBox="0 0 900 600" width="900" height="600" xmlns="http://www.w3.org/2000/svg" xmlns:xlink="http://www.w3.org/1999/xlink" version="1.1"><rect x="0" y="0" width="900" height="600" fill="#ffffff"></rect><defs><linearGradient id="grad1_0" x1="33.3%" y1="0%" x2="100%" y2="100%"><stop offset="20%" stop-color="#ffffff" stop-opacity="1"></stop><stop offset="80%" stop-color="#ffffff" stop-opacity="1"></stop></linearGradient></defs><defs><linearGradient id="grad2_0" x1="0%" y1="0%" x2="66.7%" y2="100%"><stop offset="20%" stop-color="#ffffff" stop-opacity="1"></stop><stop offset="80%" stop-color="#ffffff" stop-opacity="1"></stop></linearGradient></defs><g transform="translate(900, 0)"><path d="M0 459.7C-53.5 439.5 -107 419.2 -166.1 401C-225.2 382.7 -289.9 366.4 -325.1 325.1C-360.2 283.7 -365.9 217.2 -383.4 158.8C-400.9 100.5 -430.3 50.2 -459.7 0L0 0Z" fill="#FCAF3C"></path></g><g transform="translate(0, 600)"><path d="M0 -459.7C59.5 -452.8 119 -445.8 175.9 -424.7C232.8 -403.6 287.2 -368.3 321.7 -321.7C356.3 -275.2 371.1 -217.4 390.8 -161.9C410.5 -106.4 435.1 -53.2 459.7 0L0 0Z" fill="#FCAF3C"></path></g></svg>